<svg xmlns="http://www.w3.org/2000/svg" width="131.965" height="72.699" viewBox="0 0 131.965 72.699">
  <path id="Path_78" data-name="Path 78" d="M-19.769-53.958c-1.242.552-7.314,3.8-9.039,5.382-2.07,1.863-1.794,1.173-2.76,1.794a10.367,10.367,0,0,1-1.449,1.656c-.759.759-2.346.483-2.553.966-1.518.9-2.07,1.863-4,4.278a34.062,34.062,0,0,1-6.141,5.934,4.339,4.339,0,0,1-1.656,3.105c-.69.759-1.932.828-1.932,2-2.829,3.657-2.622,4.9-3.864,8.142h-.414a.7.7,0,0,1-.621.414c-.207,0-.207-.069-.276-.069-.138,0-.276.138-.483.138a10.006,10.006,0,0,0-3.381,1.242A27.9,27.9,0,0,0-61.79-16.7l2.07-.138.759.345.138-.414a2.694,2.694,0,0,1,.966-.138,3.96,3.96,0,0,1,.828.069,2.261,2.261,0,0,1,1.035-1.38,7.193,7.193,0,0,1,1.449-.759c-2,2.76-3.657,8.487-5.313,12.144l1.794,1.932c1.656-1.311,1.518-4.485,2.484-8a19.823,19.823,0,0,0,2.484-4.14c.552-1.242,2.9-1.518,3.1-1.932l.276-.276a6.951,6.951,0,0,0,1.311.138,5.969,5.969,0,0,0,3.312-.828l.966.9c0-.069.207-.138.759-.276.276-.138.414-.276.414-.552-.828-.414-5.106-.69-7.521-.69h-.759c.345-.483.828-2.346,2.415-5.175,1.38-2.484,2.553-4.554,4.14-5.589,0-1.449,2.415-3.312,2.415-3.312a2.349,2.349,0,0,0,1.1-1.863A3.117,3.117,0,0,1-39.5-38.778c1.1-.621,2.139-.69,2.208-1.173h.483A4.572,4.572,0,0,1-34.6-43.125l4.416-2.415.759-.828,2.277-1.863,6.141-3.243c-6.555,7.314-7.038,15.042-12.765,19.941a1.925,1.925,0,0,0-1.311,1.863,4.412,4.412,0,0,1-.828,2.346c.345.276.483.483.483.759a2.137,2.137,0,0,1-.9,1.449c-.69.759-1.311,1.587-1.242,1.449-.483.9.345.759-4.278,8.487-2,3.381-1.932,2.76-2.139,4.485a2.988,2.988,0,0,0-.069.345l-1.587,1.863c0,.138.069.345.069.552a8.169,8.169,0,0,1-.552,2.484A6.326,6.326,0,0,0-46.678-2.9a3.36,3.36,0,0,0,.069.828c-.414.69-.759,1.449-1.242,2.208a5.986,5.986,0,0,0-.483,2.07v.276a3.052,3.052,0,0,0,.345,1.035c-1.173,1.035-1.794,2.76-2,5.313-.276,3.312-.483,5.244-.828,5.934h.276c-.069,0-.138.207-.207.483s-.138.414-.345.414h-.276a1.735,1.735,0,0,0-1.173,1.449s.828,1.587,1.035.9a5.413,5.413,0,0,0,.138-.966c0-.207-.069-.345-.069-.483a3.5,3.5,0,0,0,.621.138c.276,0,.345-.345.414-.9,0-.621.138-.966.345-1.1.276-.207.483-.828.69-1.932a3.743,3.743,0,0,1,.759-2.139,2.568,2.568,0,0,1-.483-1.38V8.97a5.474,5.474,0,0,1,.483-2,5.793,5.793,0,0,0,.483-2V4.692a1.391,1.391,0,0,0-.207-.759c.966-.138,1.518-.828,1.656-2A12.7,12.7,0,0,1-46.2-1.035c.414-.828.621-.759.966-3.243a11.888,11.888,0,0,1,2.277-4.968l1.311-2.967a14,14,0,0,1,1.587-2.9l.552-.966a13.624,13.624,0,0,0,1.863-2.967c1.587-3.381,3.036-6.417,4.278-9.177.69-.966,2-2.829,4.14-5.658,1.725-2.277,1.311-4.278,2.139-5.934l1.725-2.139a7.215,7.215,0,0,1,2.07-1.863A17.614,17.614,0,0,1-21.7-47.4c.828-1.449,2.208-2.691,2.208-3.519,0-.483.069-1.1.069-1.656A2.171,2.171,0,0,0-19.769-53.958ZM-33.085-6.693a2.7,2.7,0,0,0-.207.759l.207-.552v2.415A16.1,16.1,0,0,0-29.014,1.1a8.444,8.444,0,0,0,2.829.414,8.9,8.9,0,0,0,2.76-.414,11.885,11.885,0,0,1,2.9-.9,4.345,4.345,0,0,0,2.622-1.656l-.759-.759a1.429,1.429,0,0,0-.69.345l-.414-.345c-.69.414-1.38.828-2.208,1.242a4.815,4.815,0,0,1-2.208.69,3.388,3.388,0,0,1-.828-.207A3.388,3.388,0,0,0-25.84-.69a1.008,1.008,0,0,0-.966.69c-1.38-.069-2.76-1.035-4.071-2.829a8.35,8.35,0,0,1-.069-1.311,8.01,8.01,0,0,1,1.173-4.278c1.863-3.036,4.83-4.968,8.9-5.865a1.668,1.668,0,0,1,1.311-.828,3.338,3.338,0,0,1,1.656.69,4.967,4.967,0,0,0,1.587.828,1.934,1.934,0,0,1-.759,1.794l.759.759a1.174,1.174,0,0,0,.483.069,2.613,2.613,0,0,0,2.07-1.242c-.138-1.242-1.1-2.691-3.036-4.416-1.242-.069-2-.345-2.208-.759-5.451,1.449-9.384,3.8-11.868,7.038l-1.1,2.622A2.318,2.318,0,0,0-33.085-6.693Zm23.8,0a2.7,2.7,0,0,0-.207.759l.207-.552v2.415A16.1,16.1,0,0,0-5.209,1.1a8.444,8.444,0,0,0,2.829.414A8.9,8.9,0,0,0,.38,1.1a11.885,11.885,0,0,1,2.9-.9A4.345,4.345,0,0,0,5.9-1.449l-.759-.759a1.429,1.429,0,0,0-.69.345l-.414-.345c-.69.414-1.38.828-2.208,1.242a4.815,4.815,0,0,1-2.208.69,3.388,3.388,0,0,1-.828-.207A3.388,3.388,0,0,0-2.035-.69,1.008,1.008,0,0,0-3,0c-1.38-.069-2.76-1.035-4.071-2.829A8.35,8.35,0,0,1-7.141-4.14,8.01,8.01,0,0,1-5.968-8.418c1.863-3.036,4.83-4.968,8.9-5.865a1.668,1.668,0,0,1,1.311-.828,3.338,3.338,0,0,1,1.656.69,4.967,4.967,0,0,0,1.587.828A1.934,1.934,0,0,1,6.727-11.8l.759.759a1.174,1.174,0,0,0,.483.069,2.613,2.613,0,0,0,2.07-1.242C9.9-13.455,8.936-14.9,7-16.629c-1.242-.069-2-.345-2.208-.759-5.451,1.449-9.384,3.8-11.868,7.038l-1.1,2.622A2.318,2.318,0,0,0-9.28-6.693ZM28.6-11.937a7.98,7.98,0,0,0-3.174,1.587,18.222,18.222,0,0,0-3.174.138,31.018,31.018,0,0,0,3.45-1.932l3.036-.828a22.2,22.2,0,0,1,3.036-.552A10.855,10.855,0,0,1,28.6-11.937ZM31.636-15.8a11.676,11.676,0,0,0-5.52,1.794c-1.587,1.035-3.243,2.139-4.968,3.174a23.254,23.254,0,0,0-3.381,1.587,30.688,30.688,0,0,0-3.726,3.312A5.857,5.857,0,0,0,12.454-2.07v.483L14.11.69a3.227,3.227,0,0,0,2.07,1.449,18.8,18.8,0,0,1,4.14-.621A22.309,22.309,0,0,0,24.529.966l5.934-2-.276-.207C24.046.138,20.113.828,18.457.828A11.879,11.879,0,0,1,16.18.69c-1.242-.552-1.863-2-1.863-4.209v-.69L17.008-6.9l1.38-.414a1.519,1.519,0,0,1,.552-.069,1.471,1.471,0,0,1,.828.207,12.642,12.642,0,0,0,3.1-.483,14.832,14.832,0,0,1,3.036-.414c1.725-.621,3.45-1.242,5.175-1.794a10.518,10.518,0,0,0,4.347-3.381l.207-1.173A6.852,6.852,0,0,0,31.636-15.8Zm22.08-.414c-.276-.207-.414-.345-.414-.483a3.412,3.412,0,0,0-2.484-1.449,1.91,1.91,0,0,0-.9.207,4.624,4.624,0,0,0-3.657,2.553,21.655,21.655,0,0,0-1.725,4.209,5.4,5.4,0,0,0-1.1,2.622,9.466,9.466,0,0,1-.828,2.76l-2,3.381c-.759,1.38-1.725,2.139-2.829,2.139a4.639,4.639,0,0,1-1.242-.207,20.891,20.891,0,0,1-1.311,1.656c.345.069.621.414.828.9.276.483.552.759.9.759a.918.918,0,0,0,.552-.207c2.208-1.449,4.14-3.933,5.865-7.314l3.864-8.97c1.587-1.311,2.691-1.932,3.312-1.932a4.131,4.131,0,0,1,.828.138,2.087,2.087,0,0,0,.138.69c0,.414-.069.483-.276.621l.414.207A2.929,2.929,0,0,0,53.716-16.215Zm15.525,0c-.276-.207-.414-.345-.414-.483a3.412,3.412,0,0,0-2.484-1.449,1.91,1.91,0,0,0-.9.207,4.624,4.624,0,0,0-3.657,2.553,21.655,21.655,0,0,0-1.725,4.209,5.4,5.4,0,0,0-1.1,2.622,9.466,9.466,0,0,1-.828,2.76l-2,3.381C55.373-1.035,54.407-.276,53.3-.276a4.639,4.639,0,0,1-1.242-.207A20.891,20.891,0,0,1,50.75,1.173c.345.069.621.414.828.9.276.483.552.759.9.759a.918.918,0,0,0,.552-.207c2.208-1.449,4.14-3.933,5.865-7.314l3.864-8.97c1.587-1.311,2.691-1.932,3.312-1.932a4.131,4.131,0,0,1,.828.138,2.087,2.087,0,0,0,.138.69c0,.414-.069.483-.276.621l.414.207A2.929,2.929,0,0,0,69.242-16.215Z" transform="translate(62.437 54.266)" fill="#535353" stroke="#535354" stroke-width="0.5"/>
</svg>
