<svg xmlns="http://www.w3.org/2000/svg" width="119.698" height="61.992" viewBox="0 0 119.698 61.992">
  <path id="Path_79" data-name="Path 79" d="M-29.458-36.7a.819.819,0,0,0-.756-.336h-1.218a26.421,26.421,0,0,0-5.21,3.151,89.665,89.665,0,0,0-11.68,12.815l-1.429,3.025a15.846,15.846,0,0,1-1.723,2.815l-1.26,3.235a17.431,17.431,0,0,0-1.092,3.277.582.582,0,0,0-.378.63c0,.21.042.672.042.714a1.15,1.15,0,0,0-.378.966l.042,1.05-.336.336c-.042.462-.042.882-.042,1.3,0,3.277,1.008,5.672,3.067,7.185a.477.477,0,0,1,.336-.126,1.931,1.931,0,0,1,.546.168,1.4,1.4,0,0,0,.5.21.6.6,0,0,0,.252-.084,4.144,4.144,0,0,1,.756.336,1.6,1.6,0,0,0,.756.252.792.792,0,0,0,.336-.084l2.479-.462a4.251,4.251,0,0,0,2.227-1.05l.168.168c0-.042,1.05-.63,3.109-1.807a8.64,8.64,0,0,0,2.731-2.353c.546-.168.84-.42.84-.672v-.378a.368.368,0,0,0-.252-.294h-.42c-.168,0-.294-.042-.336-.168A8.294,8.294,0,0,1-40.3-.227L-43.323,1.79a2.161,2.161,0,0,0-1.176.378,3.175,3.175,0,0,1-1.134.42c-.168.168-.5.21-1.008.21-.588,0-.882.126-1.008.294a4.612,4.612,0,0,1-1.05.084,5.25,5.25,0,0,1-4.075-2.059,3.847,3.847,0,0,1-1.092-3.025c0-.336,0-.8.042-1.429,0-.63.042-1.092.042-1.387a6.971,6.971,0,0,0-.084-1.008l.336-.336a18.153,18.153,0,0,1,1.344-5.462c.672-1.681,1.429-3.361,2.185-5.042q9.075-15.5,19.369-19.327l.168.168a.756.756,0,0,0,.63-.294Zm7.9,23.991a3.855,3.855,0,0,0-1.429-1.26,8.635,8.635,0,0,0-5.756,2.941,35.43,35.43,0,0,0-3.907,4.874c0,.462,0,.924-.042,1.387a3.415,3.415,0,0,0,.462,1.6,2.412,2.412,0,0,0,2.1.966A14.663,14.663,0,0,0-26.9-2.958a36.883,36.883,0,0,0,3.319-3.067,18.2,18.2,0,0,0,2.815-5.042A3.675,3.675,0,0,0-21.559-12.706Zm-.378,2.017a3.308,3.308,0,0,1-.8,1.849,8.273,8.273,0,0,0-1.092,1.765,6.459,6.459,0,0,0-1.849,1.765,2.734,2.734,0,0,1-2.1,1.26,2.227,2.227,0,0,1-1.639.588l-2.017-.126a4.179,4.179,0,0,1-.252-1.344,2.194,2.194,0,0,1,.168-.882,1.054,1.054,0,0,0,.042.42l.21.168a.845.845,0,0,0,.588-.84,1.062,1.062,0,0,1,.546-.882l-.462-.42-.21.21c0-.462.126-.672.378-.672l.294.21a.87.87,0,0,0,.21-.42l.21.21.462-.42-.462-.462-.21.21a7.6,7.6,0,0,1,2.941-2.563,2.609,2.609,0,0,1-.966,1.134c-.546.462-.84.84-.84,1.218a.715.715,0,0,0,.042.294,13.7,13.7,0,0,0,2.479-2.689c.882-1.092,1.681-1.681,2.479-1.681a2.826,2.826,0,0,1,1.3.378A3.725,3.725,0,0,1-21.937-10.689Zm6.68,26.218a2.789,2.789,0,0,1,.63-1.639,1.649,1.649,0,0,1-.126-.588,2.984,2.984,0,0,1,.546-1.344,2.818,2.818,0,0,0,.5-1.513c.336-1.008.5-1.513.5-1.471.546-.756.966-1.344,1.26-1.807a5.321,5.321,0,0,1,.63-1.849,8.039,8.039,0,0,0,.756-1.639A14.532,14.532,0,0,0-8.745.109,26.169,26.169,0,0,1-7.148-3.5l.084-.378,2.689-4.075c.084-.336.252-.8.5-1.471a3.127,3.127,0,0,0,.378-1.3c0-.21-.042-.42-.042-.63a.727.727,0,0,0-.5-.546,3.51,3.51,0,0,1-.8-.336c-.924.21-1.849.336-2.773.5a3.794,3.794,0,0,0-2.773,2.1,32.961,32.961,0,0,0-5.588,4.2v-.252a4.863,4.863,0,0,1,.714-2.227l1.387-2.395a3.025,3.025,0,0,1,.5-.966,2.138,2.138,0,0,0,.42-1.05.849.849,0,0,0-.462-.756,8.24,8.24,0,0,0-1.933,3.109,10.251,10.251,0,0,1-1.765,3.151,3.839,3.839,0,0,1-.672,2.059L-19-2.874l.924.714c.084-.168.294-.252.672-.252a15.878,15.878,0,0,1,3.445-3.655c2.017-1.681,3.277-2.773,3.781-3.319l2.857-1.387a1.027,1.027,0,0,0,.756.252h.21a1.884,1.884,0,0,1,.462-.042,1.567,1.567,0,0,1,.5.084,1.575,1.575,0,0,1,.042.462A8.439,8.439,0,0,1-6.1-7.159a13.423,13.423,0,0,1-1.6,2.983l-.924,2.983Q-8.871-.752-9.627.95a6.413,6.413,0,0,1-1.3,1.975,3.681,3.681,0,0,0-.336.84,2.106,2.106,0,0,1-.42.924c0,.042.042.126.042.168a1.323,1.323,0,0,1-.336.756,1.261,1.261,0,0,0-.378.8,2.092,2.092,0,0,1-.378,1.218,1.946,1.946,0,0,0-.336.882,1.82,1.82,0,0,0,.042.21c-.126.126-.21.21-.21.252l-.084.126c-.336.546-.672,1.176-1.008,1.849a4.357,4.357,0,0,0-.546,1.933,9.486,9.486,0,0,0-.63,2.143C-16.769,19.983-15.257,15.655-15.257,15.529ZM21.17-43.5a41.384,41.384,0,0,1-3.109,6.638c0,.168.042.378.042.546a3.819,3.819,0,0,1-.84,1.933,3.551,3.551,0,0,0-.756,2.017c-1.639,2.941-2.521,4.58-2.647,4.832L6.381-14.05l-.672.546A34.6,34.6,0,0,0,1.633-13.8H1.087l-.042.294a2.264,2.264,0,0,1,.84,1.008l.546,1.26a1.635,1.635,0,0,0-.294.966,2.331,2.331,0,0,0,.126.714,4.388,4.388,0,0,0,.252-1.6,8.81,8.81,0,0,0-.168-1.723c-.084,0,.462-.042,1.639-.084a3.655,3.655,0,0,1,1.639.336L4.406-10.227a4.68,4.68,0,0,1-.672,1.26,9.917,9.917,0,0,0-.672,1.26L2.516-6.613a2.734,2.734,0,0,1-.756.882c0-.042.084-.5.168-1.471a4.915,4.915,0,0,1,.378-1.471v-.21c0-.294-.084-.42-.252-.42l.126.126-.336.42C1.255-5.983.751-3.924.331-2.622c0,.336.084.5.294.5a1.265,1.265,0,0,0,.588-.252c.378-.924,1.176-2.521,2.353-4.748a48.2,48.2,0,0,0,2.269-4.874s.126-.168.336-.42a.581.581,0,0,1,.462-.252.635.635,0,0,1,.336.084c.042,0,.126-.042.168-.042a1.574,1.574,0,0,1,.84.378,1.866,1.866,0,0,0,.84.462.86.86,0,0,0,.63-.378c0-.5-.252-.8-.8-1.008a3.134,3.134,0,0,1-1.26-.5,83.966,83.966,0,0,1,4.79-8.7,61.337,61.337,0,0,0,4.16-8.151c2.395-5.252,3.865-8.319,4.328-9.159.042-.084.336-.588.84-1.6a3.774,3.774,0,0,0,.546-1.6,1.479,1.479,0,0,0-.5-1.092ZM21.044-8.168A8.731,8.731,0,0,1,16.8-4.891c-2.647.336-4.5.546-5.588.63q1.323-4.223,9.327-7.815c0,.042.084.042.294.042a7.236,7.236,0,0,0,.84-.042,2.315,2.315,0,0,1,1.05.21A10.427,10.427,0,0,1,21.044-8.168ZM47.808,9.815l-.084.63a1.249,1.249,0,0,0-.546.714,1.193,1.193,0,0,1-.672.756c-4.874,1.555-7.9,2.437-9.033,2.647a36.767,36.767,0,0,1-7.311.924H27.725a7.709,7.709,0,0,1-1.849-.294.435.435,0,0,1-.294.21c-.126,0-.252-.084-.42-.294a.768.768,0,0,0-.42-.252.381.381,0,0,0-.294.126,1.747,1.747,0,0,0-1.218-.546,1.979,1.979,0,0,1-1.3-.462s-.252-.252-.378-.252-.21-.084-.294-.21c-.042-.21-.126-.336-.252-.336l-.21.168-.42-.168-.294.294c-.084-.294-.168-.5-.252-.5l-.588-.336-1.807-1.807-.042-.294c-.042,0-.084.042-.126.042-.126,0-.294-.126-.378-.378l-.294-.5a.886.886,0,0,1,.168-.588l-.168-.168-.042-.42a1.62,1.62,0,0,1-.462-.882l-.126-1.008V4.479A35.906,35.906,0,0,1,17.641-.185a35.552,35.552,0,0,0,3.571-4.622c.5-.714,1.471-2.311,2.941-4.79a2.529,2.529,0,0,0,.21-1.092,4.3,4.3,0,0,0-1.218-2.773,5.4,5.4,0,0,0-1.513-.252,5.171,5.171,0,0,0-1.513.252c-.21.21-1.6,1.05-4.118,2.563a8.184,8.184,0,0,0-3.487,3.193,2.4,2.4,0,0,0-1.555,1.513L10.078-4.05a2.207,2.207,0,0,1-.924.462.983.983,0,0,0-.672.924.611.611,0,0,0,.63.42,4.63,4.63,0,0,0,.756-.084,1.914,1.914,0,0,1,1.344-.42,5.9,5.9,0,0,1,1.723.294,15.69,15.69,0,0,0,3.823-1.723c.294-.168,1.471-.924,3.571-2.311a.679.679,0,0,1,.168.42.967.967,0,0,1-.126.378,3.1,3.1,0,0,0-.084.5,1.017,1.017,0,0,0,.168.546L16.675.151a11.375,11.375,0,0,0-1.429,6.092,8.978,8.978,0,0,0,2.521,6.428A11.466,11.466,0,0,0,25.5,15.991a1.381,1.381,0,0,1,.714.168,1.222,1.222,0,0,0,.42.21.73.73,0,0,0,.462-.252c0-.042.042-.042.126-.042a1.182,1.182,0,0,1,.336.042h.294a1.7,1.7,0,0,1,.462-.252c.084,0,.168.042.21.21a.915.915,0,0,0,.378.294c.546.042,1.008.084,1.387.084a4.458,4.458,0,0,0,.882-.084c.168-.21.336-.336.462-.336a.363.363,0,0,1,.252.126.231.231,0,0,0,.21.084c.126,0,.252-.084.42-.252h.336c.462,0,1.344-.042,2.6-.084a19.5,19.5,0,0,0,3.067-.588c1.134-.21,2.269-.42,3.361-.672a52.778,52.778,0,0,0,5.546-1.513,1.586,1.586,0,0,0,.882-.63c.252-.336.462-.5.714-.5h.462l.168-1.05A1.976,1.976,0,0,0,47.808,9.815ZM27.641-6.991a1.644,1.644,0,0,0-.126.462l.126-.336v1.471A9.8,9.8,0,0,0,30.12-2.244a5.141,5.141,0,0,0,1.723.252,5.418,5.418,0,0,0,1.681-.252,7.237,7.237,0,0,1,1.765-.546,2.646,2.646,0,0,0,1.6-1.008l-.462-.462a.87.87,0,0,0-.42.21l-.252-.21c-.42.252-.84.5-1.344.756a2.932,2.932,0,0,1-1.344.42,2.063,2.063,0,0,1-.5-.126,2.063,2.063,0,0,0-.5-.126.614.614,0,0,0-.588.42,3.531,3.531,0,0,1-2.479-1.723,5.085,5.085,0,0,1-.042-.8,4.877,4.877,0,0,1,.714-2.6,8.012,8.012,0,0,1,5.42-3.571,1.015,1.015,0,0,1,.8-.5,2.032,2.032,0,0,1,1.008.42,3.025,3.025,0,0,0,.966.5,1.178,1.178,0,0,1-.462,1.092l.462.462a.715.715,0,0,0,.294.042,1.591,1.591,0,0,0,1.26-.756,4.8,4.8,0,0,0-1.849-2.689c-.756-.042-1.218-.21-1.344-.462-3.319.882-5.714,2.311-7.227,4.286l-.672,1.6A1.411,1.411,0,0,0,27.641-6.991ZM63.438-43.5a41.384,41.384,0,0,1-3.109,6.638c0,.168.042.378.042.546a3.819,3.819,0,0,1-.84,1.933,3.551,3.551,0,0,0-.756,2.017c-1.639,2.941-2.521,4.58-2.647,4.832L48.649-14.05l-.672.546A34.6,34.6,0,0,0,43.9-13.8h-.546l-.042.294a2.264,2.264,0,0,1,.84,1.008l.546,1.26a1.635,1.635,0,0,0-.294.966,2.331,2.331,0,0,0,.126.714,4.388,4.388,0,0,0,.252-1.6,8.81,8.81,0,0,0-.168-1.723c-.084,0,.462-.042,1.639-.084a3.655,3.655,0,0,1,1.639.336l-1.218,2.395A4.68,4.68,0,0,1,46-8.966a9.917,9.917,0,0,0-.672,1.26l-.546,1.092a2.734,2.734,0,0,1-.756.882c0-.042.084-.5.168-1.471a4.915,4.915,0,0,1,.378-1.471v-.21c0-.294-.084-.42-.252-.42l.126.126-.336.42c-.588,2.773-1.092,4.832-1.513,6.134,0,.336.084.5.294.5a1.265,1.265,0,0,0,.588-.252c.378-.924,1.176-2.521,2.353-4.748A48.2,48.2,0,0,0,48.1-11.991s.126-.168.336-.42a.581.581,0,0,1,.462-.252.635.635,0,0,1,.336.084c.042,0,.126-.042.168-.042a1.574,1.574,0,0,1,.84.378,1.866,1.866,0,0,0,.84.462.86.86,0,0,0,.63-.378c0-.5-.252-.8-.8-1.008a3.134,3.134,0,0,1-1.26-.5,83.966,83.966,0,0,1,4.79-8.7,61.338,61.338,0,0,0,4.16-8.151c2.395-5.252,3.865-8.319,4.328-9.159.042-.084.336-.588.84-1.6a3.774,3.774,0,0,0,.546-1.6,1.479,1.479,0,0,0-.5-1.092Z" transform="translate(55.128 44.338)" fill="#535353" stroke="#535354" stroke-width="0.5"/>
</svg>
