<svg id="アートワーク_14" data-name="アートワーク 14" xmlns="http://www.w3.org/2000/svg" xmlns:xlink="http://www.w3.org/1999/xlink" width="32.994" height="32.997" viewBox="0 0 32.994 32.997">
  <defs>
    <clipPath id="clip-path">
      <rect id="Rectangle_324" data-name="Rectangle 324" width="32.994" height="32.997" fill="none"/>
    </clipPath>
  </defs>
  <g id="Group_493" data-name="Group 493" clip-path="url(#clip-path)">
    <path id="Path_540" data-name="Path 540" d="M16.5,2.973c4.407,0,4.925.02,6.667.1a9,9,0,0,1,3.065.57,5.115,5.115,0,0,1,1.9,1.231,5.115,5.115,0,0,1,1.231,1.9,9.172,9.172,0,0,1,.57,3.065c.079,1.742.1,2.259.1,6.667s-.02,4.925-.1,6.667a9,9,0,0,1-.57,3.065,5.462,5.462,0,0,1-3.13,3.13,9.172,9.172,0,0,1-3.065.57c-1.742.079-2.259.1-6.667.1s-4.925-.02-6.667-.1a9,9,0,0,1-3.065-.57,5.115,5.115,0,0,1-1.9-1.231,5.115,5.115,0,0,1-1.231-1.9,9.172,9.172,0,0,1-.57-3.065c-.079-1.742-.1-2.259-.1-6.667s.02-4.925.1-6.667a9,9,0,0,1,.57-3.065,5.115,5.115,0,0,1,1.231-1.9,5.115,5.115,0,0,1,1.9-1.231,9,9,0,0,1,3.065-.57c1.742-.079,2.259-.1,6.667-.1M16.5,0c-4.48,0-5.043.02-6.8.1a12.057,12.057,0,0,0-4,.766A8.088,8.088,0,0,0,2.77,2.77,8.088,8.088,0,0,0,.864,5.691,12.1,12.1,0,0,0,.1,9.7C.02,11.461,0,12.017,0,16.5s.02,5.043.1,6.8a12.057,12.057,0,0,0,.766,4A8.088,8.088,0,0,0,2.77,30.224a8.088,8.088,0,0,0,2.921,1.906A12.1,12.1,0,0,0,9.7,32.9c1.762.079,2.318.1,6.8.1s5.043-.02,6.8-.1a12.136,12.136,0,0,0,4.008-.766A8.435,8.435,0,0,0,32.143,27.3a12.1,12.1,0,0,0,.766-4.008c.079-1.762.1-2.318.1-6.8s-.02-5.043-.1-6.8a12.136,12.136,0,0,0-.766-4.008,8.088,8.088,0,0,0-1.906-2.921A8.088,8.088,0,0,0,27.316.851,12.644,12.644,0,0,0,23.3.1C21.546.02,20.976,0,16.5,0" transform="translate(0 0)" fill="#bfbfbf"/>
    <path id="Path_541" data-name="Path 541" d="M130.974,122.6a8.474,8.474,0,1,0,8.474,8.468,8.474,8.474,0,0,0-8.474-8.468m0,13.969a5.5,5.5,0,1,1,5.5-5.5,5.5,5.5,0,0,1-5.5,5.5" transform="translate(-114.477 -114.571)" fill="#bfbfbf"/>
    <path id="Path_542" data-name="Path 542" d="M360.156,89.178a1.978,1.978,0,1,1-1.978-1.978,1.978,1.978,0,0,1,1.978,1.978" transform="translate(-332.872 -81.489)" fill="#bfbfbf"/>
  </g>
</svg>
