<svg id="Group_494" data-name="Group 494" xmlns="http://www.w3.org/2000/svg" width="34.93" height="29.641" viewBox="0 0 34.93 29.641">
  <g id="Union_1" data-name="Union 1" fill="#c1c1c1">
    <path d="M 6.95173978805542 26.78943824768066 C 7.025554656982422 26.39095115661621 7.09732723236084 25.95359992980957 7.166383743286133 25.47318267822266 C 7.362193584442139 24.10938262939453 7.32676362991333 22.76761245727539 7.061113834381104 21.48487281799316 L 6.936413764953613 20.88271331787109 L 6.424903869628906 20.54137229919434 C 4.858683586120605 19.49618339538574 3.632733821868896 18.26923179626465 2.781103849411011 16.89459228515625 C 1.931023716926575 15.52246284484863 1.500003695487976 14.06723213195801 1.500003695487976 12.56933212280273 C 1.500003695487976 9.708722114562988 3.094963788986206 6.985062599182129 5.99108362197876 4.900082588195801 C 9.036653518676758 2.707512617111206 13.11058330535889 1.500002503395081 17.46240425109863 1.500002503395081 C 21.81621360778809 1.500002503395081 25.89163398742676 2.707542419433594 28.93793296813965 4.900172710418701 C 31.8344841003418 6.98502254486084 33.42968368530273 9.708652496337891 33.42968368530273 12.56933212280273 C 33.42968368530273 15.43159294128418 31.8344841003418 18.15609169006348 28.93793296813965 20.24094200134277 C 25.89207458496094 22.43326187133789 21.81665420532227 23.64062309265137 17.46240425109863 23.64062309265137 C 16.50239372253418 23.64062309265137 15.52966403961182 23.57893180847168 14.57123374938965 23.45725250244141 L 14.13790416717529 23.40224266052246 L 13.74278354644775 23.58848190307617 L 6.95173978805542 26.78943824768066 Z" stroke="none"/>
    <path d="M 8.780806541442871 24.2690315246582 L 13.89347362518311 21.85917282104492 L 14.7601432800293 21.96920204162598 C 15.65615367889404 22.08294296264648 16.56532287597656 22.14062309265137 17.46240425109863 22.14062309265137 C 19.52451324462891 22.14062309265137 21.51832389831543 21.85196304321289 23.3884334564209 21.28267288208008 C 25.15293312072754 20.74552345275879 26.72523307800293 19.98542213439941 28.06166458129883 19.02350234985352 C 30.55599403381348 17.22816276550293 31.92968368530273 14.93602275848389 31.92968368530273 12.56933212280273 C 31.92968368530273 10.20422267913818 30.55599403381348 7.912952423095703 28.06166458129883 6.117612361907959 C 26.72509384155273 5.155582427978516 25.15273284912109 4.395392417907715 23.38827323913574 3.858152389526367 C 21.51809310913086 3.288722515106201 19.52434349060059 3.000002384185791 17.46240425109863 3.000002384185791 C 15.40160369873047 3.000002384185791 13.40882396697998 3.288702487945557 11.53940391540527 3.85808253288269 C 9.775564193725586 4.395302295684814 8.203703880310059 5.155452728271484 6.867483615875244 6.117432594299316 C 4.373503684997559 7.912902355194092 3.000003814697266 10.20423221588135 3.000003814697266 12.56933212280273 C 3.000003814697266 13.78390216827393 3.355363845825195 14.97334289550781 4.05622386932373 16.10461235046387 C 4.783633708953857 17.27874183654785 5.890623569488525 18.38150215148926 7.257533550262451 19.29367256164551 L 8.280543327331543 19.97636222839355 L 8.529953956604004 21.18069267272949 C 8.737919807434082 22.18490791320801 8.821667671203613 23.21897506713867 8.780806541442871 24.2690315246582 M 4.42090368270874 29.64062309265137 C 4.42090368270874 29.64062309265137 5.114253520965576 29.20703315734863 5.681643962860107 25.25976181030273 C 5.875973701477051 23.90625190734863 5.789063930511475 22.73926162719727 5.592283725738525 21.7890625 C 2.151853799819946 19.49316215515137 3.749999905267032e-06 16.21289253234863 3.749999905267032e-06 12.56933212280273 C 3.749999905267032e-06 5.630862712860107 7.818363666534424 2.499999936844688e-06 17.46240425109863 2.499999936844688e-06 C 27.11084365844727 2.499999936844688e-06 34.92968368530273 5.630862712860107 34.92968368530273 12.56933212280273 C 34.92968368530273 19.51172256469727 27.11084365844727 25.14062309265137 17.46240425109863 25.14062309265137 C 16.4111328125 25.14062309265137 15.38232421875 25.07226181030273 14.38232421875 24.9453125 L 4.42090368270874 29.64062309265137 Z" stroke="none" fill="#bfbfbf"/>
  </g>
  <circle id="Ellipse_13" data-name="Ellipse 13" cx="2.911" cy="2.911" r="2.911" transform="translate(5.82 10.188)" fill="#fff"/>
  <circle id="Ellipse_14" data-name="Ellipse 14" cx="2.911" cy="2.911" r="2.911" transform="translate(13.825 10.188)" fill="#fff"/>
  <circle id="Ellipse_15" data-name="Ellipse 15" cx="2.911" cy="2.911" r="2.911" transform="translate(22.558 10.188)" fill="#fff"/>
</svg>
