<svg xmlns="http://www.w3.org/2000/svg" width="111.073" height="62.229" viewBox="0 0 111.073 62.229">
  <path id="Path_6" data-name="Path 6" d="M15.1-37.742c0-.73-.511-1.387-1.68-2.045a2.724,2.724,0,0,0-.876-.146,14.063,14.063,0,0,0-2.921.438A89.832,89.832,0,0,0-14.11-18.318a28.138,28.138,0,0,1-3.724,5.039,21.028,21.028,0,0,0-3.578,5.4,2.861,2.861,0,0,0-1.753,1.9,13.58,13.58,0,0,1-1.1,2.41,5.313,5.313,0,0,0-1.607,2.41,4.867,4.867,0,0,1-1.607,2.264.926.926,0,0,1,.073.438,1.511,1.511,0,0,1-.657,1.022,1.511,1.511,0,0,0-.657,1.022.658.658,0,0,0,.073.365A23.34,23.34,0,0,1-31.416,8.7a11.142,11.142,0,0,0-2.191,4.893l-1.972,3.432a11.261,11.261,0,0,1-1.46,3.724c-.876,1.533,1.241,1.314,1.753-.219,0-.219,1.9-4.089,5.55-11.684a92.535,92.535,0,0,1,6.28-11.538C-14.475-16.2-6.223-26.059,1.225-32.558h.584a52.926,52.926,0,0,1,8.106-5.55,3.011,3.011,0,0,0,1.1-.292,3.663,3.663,0,0,1,1.022-.219,1.217,1.217,0,0,1,.8.292,8.582,8.582,0,0,1,.365,2.118,2.609,2.609,0,0,1-.657,1.9,21.738,21.738,0,0,1-3.724,8.179,56.9,56.9,0,0,0-4.673,7.813A60.885,60.885,0,0,1-9.217-8.533a5.134,5.134,0,0,1-1.68.365c-.584.073-.876.292-.876.8V-7A2.53,2.53,0,0,0-9.729-5.831,1.243,1.243,0,0,0-9.217-5.9,1.614,1.614,0,0,1-7.9-7.292,9.653,9.653,0,0,0-6-8.168,44.3,44.3,0,0,0,8.819-22.115,8.073,8.073,0,0,1,9.988-24.89a11.488,11.488,0,0,0,1.387-2.41,7.268,7.268,0,0,1,1.1-2.191,4.431,4.431,0,0,0,.657-2.191,6.587,6.587,0,0,0,1.46-2.848A16.208,16.208,0,0,0,15.1-37.742ZM8.381.741A3.078,3.078,0,0,0,5.752-1.085c-.292,0-1.46,0-3.432.146A6.048,6.048,0,0,1-1.185.741a1.167,1.167,0,0,1-.876,1.022c-.584.073-1.1.219-1.533.292a92.07,92.07,0,0,0-6.5,6.791c0-.073-.073-.146-.073-.292,0-.73.657-1.826,1.9-3.14,1.533-1.826,2.41-3.067,2.556-3.724A2.807,2.807,0,0,1-5.128-.062a3.952,3.952,0,0,0,.584-1.1c0-.365-.292-.73-.876-1.168C-6.662-.354-8.487,3-10.9,7.605c-2.191,4.016-4.162,7.3-5.842,9.785a2.374,2.374,0,0,0,1.753,1.1,1.742,1.742,0,0,0,1.826-1.753,30.309,30.309,0,0,1,2.41-4.527,12.392,12.392,0,0,0,1.9-2.7A8.591,8.591,0,0,1-5.858,6.291,11.1,11.1,0,0,1-3.375,3.954l2.921-1.9L4.073.96s.438.073,1.241.219c.511.146.876.365.949.8C7.578,1.617,8.235,1.179,8.381.741ZM27.367-17.3a11.635,11.635,0,0,0-.949-.949,1.123,1.123,0,0,0-.8-.438.439.439,0,0,0-.292.073c-.73.219-1.1.584-1.1,1.168,0,1.168.657,1.753,1.9,1.753a1.681,1.681,0,0,0,.657-.219,1.922,1.922,0,0,0,.657-1.168C27.44-17.15,27.367-17.223,27.367-17.3ZM17.582.449a5.352,5.352,0,0,0-1.46-.73,11.943,11.943,0,0,0-2.191,3.213A29.076,29.076,0,0,1,9.842,9.139c-1.607,2.045-2.483,3.578-2.483,4.673A4.865,4.865,0,0,0,9.55,17.39a3.02,3.02,0,0,0,1.387.365A6.013,6.013,0,0,0,14.442,16l.365.292a2.453,2.453,0,0,0,2.045-1.753l-1.68.8a3.807,3.807,0,0,1-1.753.584,3.135,3.135,0,0,1-1.022-.292c-.438.511-.8.73-1.1.73s-.657-.292-1.168-.876c-.438-.511-.876-.876-1.241-.876a12.424,12.424,0,0,1,2.629-5.185C13.42,6.875,14.588,5.2,15.1,4.392c.219-.438,1.46-2.045,1.46-2.045A2.912,2.912,0,0,0,17.582.449Zm8.179,9.712a2.858,2.858,0,0,0-.219.8l.219-.584v2.556a17.039,17.039,0,0,0,4.308,5.477,8.936,8.936,0,0,0,2.994.438,9.417,9.417,0,0,0,2.921-.438,12.578,12.578,0,0,1,3.067-.949,4.6,4.6,0,0,0,2.775-1.753l-.8-.8a1.512,1.512,0,0,0-.73.365l-.438-.365c-.73.438-1.46.876-2.337,1.314a5.1,5.1,0,0,1-2.337.73,3.585,3.585,0,0,1-.876-.219,3.585,3.585,0,0,0-.876-.219,1.066,1.066,0,0,0-1.022.73c-1.46-.073-2.921-1.1-4.308-2.994a8.837,8.837,0,0,1-.073-1.387,8.477,8.477,0,0,1,1.241-4.527c1.972-3.213,5.112-5.258,9.42-6.207a1.765,1.765,0,0,1,1.387-.876,3.532,3.532,0,0,1,1.753.73,5.257,5.257,0,0,0,1.68.876,2.047,2.047,0,0,1-.8,1.9l.8.8a1.243,1.243,0,0,0,.511.073,2.766,2.766,0,0,0,2.191-1.314C46.061,3,45.039,1.471,42.994-.354c-1.314-.073-2.118-.365-2.337-.8C34.889.376,30.726,2.859,28.1,6.291L26.929,9.066A2.453,2.453,0,0,0,25.761,10.161Zm40.09-5.55a8.446,8.446,0,0,0-3.359,1.68,19.285,19.285,0,0,0-3.359.146,32.825,32.825,0,0,0,3.651-2.045L66,3.516a23.5,23.5,0,0,1,3.213-.584A11.488,11.488,0,0,1,65.85,4.611ZM69.063.522a12.356,12.356,0,0,0-5.842,1.9c-1.68,1.1-3.432,2.264-5.258,3.359a24.61,24.61,0,0,0-3.578,1.68,32.478,32.478,0,0,0-3.943,3.505,6.2,6.2,0,0,0-1.68,4.089v.511l1.753,2.41a3.415,3.415,0,0,0,2.191,1.533,19.9,19.9,0,0,1,4.381-.657,23.61,23.61,0,0,0,4.454-.584l6.28-2.118-.292-.219c-6.5,1.46-10.661,2.191-12.414,2.191a12.572,12.572,0,0,1-2.41-.146c-1.314-.584-1.972-2.118-1.972-4.454v-.73l2.848-2.848,1.46-.438a1.608,1.608,0,0,1,.584-.073,1.557,1.557,0,0,1,.876.219,13.379,13.379,0,0,0,3.286-.511A15.7,15.7,0,0,1,63,8.7c1.826-.657,3.651-1.314,5.477-1.9a11.131,11.131,0,0,0,4.6-3.578L73.3,1.982A7.251,7.251,0,0,0,69.063.522Z" transform="translate(37.5 40.183)" fill="#535353" stroke="#535354" stroke-width="0.5"/>
</svg>
