<svg xmlns="http://www.w3.org/2000/svg" width="260.5" height="202.881" viewBox="0 0 260.5 202.881">
  <path id="Path_28" data-name="Path 28" d="M112.589,6.363C110.787,2.3,107.184.177,102.106,0c-5.9,3-10.155,5.3-12.939,7.07a100.572,100.572,0,0,0-20.31,24.214L51.986,58.326,48.219,65.4a27.556,27.556,0,0,1-4.586,6.186,7.936,7.936,0,0,1-2.457,5.479,6.594,6.594,0,0,0-2.129,4.6,3.228,3.228,0,0,0,.164,1.237L33.15,94.028a44.154,44.154,0,0,0-4.586,12.019c-3.276,7.777-5.733,13.609-7.043,17.5a9.538,9.538,0,0,0-1.965,5.656c-2.621,5.3-4.914,12.372-7.207,20.856-.983,3.888-2.784,11.312-5.241,22.093,0,.177-.164.354-.164.53l-3.112,8.484c-.491.707-.655,2.121-.655,4.242v.707a4.607,4.607,0,0,1-1.147,3.535,5.51,5.51,0,0,1,.328,1.591,10.635,10.635,0,0,1-1.31,4.065,8.722,8.722,0,0,0-.983,4.065c-.819,1.414,6.388-10.958,7.043-14.847.819-1.237,1.474-4.242,2.129-9.014a17.856,17.856,0,0,1,3.112-8.484,201.173,201.173,0,0,1,6.388-23.507q5.9-18.028,7.371-23.33c5.733-14.14,10.483-25.274,14.25-33.758.819-1.767,2.621-3.535,5.077-5.3,2.457-1.591,4.095-2.828,4.586-3.712a37.36,37.36,0,0,1,10.646-6.54C68.365,67.693,72.133,66.1,72.3,66.1a3.113,3.113,0,0,1-.655-1.237c0-.177-1.31-.353-4.259-.353a4.206,4.206,0,0,0-3.6,1.591,25.287,25.287,0,0,0-8.353,3.358l-7.862,4.419L46.909,73C54.443,60.623,61.978,47.9,70,35.526,79.339,21.033,89.33,10.958,99.485,4.949a4.545,4.545,0,0,1,2.621-1.06c.983,0,2.129,1.06,3.276,3,1.31,2.121,2.293,3.358,3.44,3.712a2.411,2.411,0,0,0,2.293-1.414ZM166.967,35.7c-2.948,1.414-17.362,9.721-21.457,13.786-4.914,4.772-4.259,3-6.552,4.6a26.072,26.072,0,0,1-3.44,4.242c-1.8,1.944-5.569,1.237-6.06,2.474-3.6,2.3-4.914,4.772-9.5,10.958-4.586,6.009-11.138,12.9-14.577,15.2,0,4.772-3.931,7.954-3.931,7.954-1.638,1.944-4.586,2.121-4.586,5.126-6.715,9.367-6.224,12.549-9.172,20.856H86.71a1.665,1.665,0,0,1-1.474,1.06c-.491,0-.491-.177-.655-.177-.328,0-.655.353-1.147.353a22.779,22.779,0,0,0-8.026,3.181c-4.586,3-7.371,4.949-8.19,5.833l4.914-.353,1.8.884.328-1.06a5.961,5.961,0,0,1,2.293-.353,8.728,8.728,0,0,1,1.965.177,5.773,5.773,0,0,1,2.457-3.535,16.72,16.72,0,0,1,3.44-1.944c-4.75,7.07-8.681,21.74-12.612,31.107l4.259,4.949c3.931-3.358,3.6-11.488,5.9-20.5,2.129-2.3,5.241-9.014,5.9-10.6,1.31-3.181,6.879-3.888,7.371-4.949l.655-.707a15.34,15.34,0,0,0,3.112.353c3.112,0,6.552-.884,7.862-2.121l2.293,2.3c0-.177.491-.353,1.8-.707a1.473,1.473,0,0,0,.983-1.414c-1.965-1.06-12.12-1.767-17.853-1.767h-1.8c.819-1.237,1.965-6.009,5.733-13.256,3.276-6.363,6.06-11.665,9.827-14.316,0-3.712,5.733-8.484,5.733-8.484,2.621-1.767,2.293-3.888,2.621-4.772.164-1.944,1.474-3.712,3.931-5.479,2.621-1.591,5.077-1.767,5.241-3h1.147a11.608,11.608,0,0,1,5.241-8.13l10.483-6.186,1.8-2.121,5.405-4.772,14.577-8.307c-15.56,18.735-16.707,38.53-30.3,51.079a4.926,4.926,0,0,0-3.112,4.772c-.328,2.828-.983,4.772-1.965,6.009a2.5,2.5,0,0,1,1.147,1.944c0,1.06-.655,2.3-2.129,3.712-1.638,1.944-3.112,4.065-2.948,3.712-1.147,2.3.819,1.944-10.155,21.74-4.75,8.66-4.586,7.07-5.077,11.488a8.19,8.19,0,0,0-.164.884l-3.767,4.772c0,.354.164.884.164,1.414a22.35,22.35,0,0,1-1.31,6.363,17.305,17.305,0,0,0-1.31,6.54,9.267,9.267,0,0,0,.164,2.121c-.983,1.767-1.8,3.712-2.948,5.656a16.351,16.351,0,0,0-1.147,5.3v.707a8.253,8.253,0,0,0,.819,2.651c-2.784,2.651-4.259,7.07-4.75,13.609-.655,8.484,2.457,5.479,3.276,4.6a6.919,6.919,0,0,1-1.147-3.535v-.707a14.95,14.95,0,0,1,1.147-5.126,15.824,15.824,0,0,0,1.147-5.126v-.707a3.778,3.778,0,0,0-.491-1.944c2.293-.354,3.6-2.121,3.931-5.126.491-4.6.819-7.247,1.147-7.6.983-2.121,1.474-1.944,2.293-8.307a31.579,31.579,0,0,1,5.405-12.726l3.112-7.6a36.792,36.792,0,0,1,3.767-7.423l1.31-2.474a35.443,35.443,0,0,0,4.422-7.6c3.767-8.66,7.207-16.437,10.155-23.507,1.638-2.474,4.75-7.247,9.827-14.493,4.095-5.833,3.112-10.958,5.077-15.2l4.095-5.479a17.633,17.633,0,0,1,4.914-4.772c.328-1.767,1.638-4.772,3.767-9.191,1.965-3.712,5.241-6.893,5.241-9.014,0-1.237.164-2.828.164-4.242A5.9,5.9,0,0,0,166.967,35.7Zm92.378,28.633c0-8.13-1.638-14.316-6.552-18.558-5.569-2.651-9.991-3.888-13.1-3.888-.983,0-2.129.177-3.112.177-.819,1.237-2.621,1.944-5.569,1.944-2.784.177-4.586,1.237-5.405,3-3.44,1.591-7.207,4.772-11.629,9.544-4.586,5.126-8.19,8.484-11.138,10.074Q199.4,67.958,194.975,73c-2.457,2.474-4.914,5.126-7.207,7.777-.328,0-.983.884-1.8,2.121a3.4,3.4,0,0,1-2.784,1.944c-1.965,4.949-4.422,8.66-7.862,11.312a4.3,4.3,0,0,1,.491,1.591c0,.884-.655,1.591-1.8,2.121a2.329,2.329,0,0,0-1.965,2.121,2.4,2.4,0,0,0,.164,1.06c-3.44,4.772-5.241,12.726-5.241,24.391v3a26.39,26.39,0,0,1,5.9,11.135,126.819,126.819,0,0,0,17.526,4.949l5.405-.884a15.957,15.957,0,0,0,5.077-1.767c7.371-2.121,20.146-12.9,29.974-24.921a30.787,30.787,0,0,0-2.621,5.833c0,1.414-1.8,3.181-3.931,5.126l-.655.53c-1.474,4.419-4.422,9.191-9.336,14.67-1.31,1.414-4.75,4.6-4.75,5.479-12.939,12.2-19.655,18.381-20.31,18.912-2.784-2.474-4.914-4.6-6.552-6.363a13.466,13.466,0,0,0-8.189-2.474c-3.6,0-8.517,1.06-14.577,3-7.862,3.535-13.1,10.251-15.56,20.5a20.061,20.061,0,0,0,5.241,7.777,9.87,9.87,0,0,1,3.6-.53h1.638a10.769,10.769,0,0,0,2.293.177,10.945,10.945,0,0,0,2.784-.354c.164,0,2.621-1.414,7.371-4.065a68.2,68.2,0,0,0,7.043-4.772c1.8,0,4.095-1.237,6.715-3.358q4.177-3.181,6.879-3.181c4.914,8.13,13.267,12.372,24.732,12.726,5.077-3.535,9.008-6.009,11.629-7.07a110.445,110.445,0,0,1,10.319-12.372,153.75,153.75,0,0,0,10.483-12.2,9.972,9.972,0,0,0-3.112-5.656l-3.276,3.535a100.185,100.185,0,0,1-24.077,28.1,1.942,1.942,0,0,0-.983-.177,9.987,9.987,0,0,0-1.8.353,5.044,5.044,0,0,1-1.638.53,1.934,1.934,0,0,1-1.474-.707,14.882,14.882,0,0,1-1.474.884,4.686,4.686,0,0,1-1.8.53,4.318,4.318,0,0,0-3.112-1.414h-.655a6.946,6.946,0,0,1-3.44-.53c-4.422-3.358-6.715-6.893-7.043-10.6a102.043,102.043,0,0,0,12.284-10.781c7.371-7.423,11.465-11.312,11.793-11.665v-1.414c6.388-5.656,7.534-7.6,11.957-15.554l2.457-4.242c5.241-10.251,10.646-20.326,16.051-30.577.491-.707,1.965-2.828,4.586-6.009a19.625,19.625,0,0,0,3.276-6.716,8.7,8.7,0,0,1,2.784-4.949c2.293-2.121,3.6-3.888,3.6-5.3a4.6,4.6,0,0,0-1.8-3.181A33.4,33.4,0,0,0,259.345,64.335Zm-4.422-.177a18.84,18.84,0,0,1-.983,6.893v2.3a16.438,16.438,0,0,1-5.077,11.665c-4.422,3.888-6.879,5.3-7.534,7.07-2.457.884-5.077,3.888-8.026,7.247-3.112,3.535-5.077,5.479-7.043,6.54l-10.646,6.363a24.106,24.106,0,0,1-10.483,2.651h-1.638q-2.948-2.121-3.931-9.014c-.655-4.419-1.638-7.6-3.276-9.014.328-10.074,2.784-18.028,7.207-23.861,3.276-5.126,8.353-9.544,15.56-13.256a4.721,4.721,0,0,1-.164-1.414c0-1.944,1.147-3.535,3.6-5.126a39.178,39.178,0,0,0,5.569-3.888,17.358,17.358,0,0,1,10.483-3.181A30.186,30.186,0,0,1,249.681,48.6c1.474.53,2.457,1.767,3.112,3.712,1.31,3,1.965,4.6,2.129,4.6ZM228.88,114.884c-7.043,10.251-14.25,16.084-20.146,18.912a9.292,9.292,0,0,1-4.586,4.065,24.55,24.55,0,0,0-5.405,3,39.286,39.286,0,0,1-5.241.53c-2.457.177-4.422.353-5.9.353q-9.336,0-12.776-5.833c-2.129-3.358-3.112-7.6-3.112-12.9a35.737,35.737,0,0,1,1.147-9.367,13.913,13.913,0,0,1,.819-4.242,15.6,15.6,0,0,0,1.147-4.242,12.418,12.418,0,0,0,2.293-3.712,14.8,14.8,0,0,1,2.293-4.065c2.129-3.535,3.767-6.363,5.241-8.484L195.63,75.823l4.095-3c-.983,1.237-3.6,5.833-4.75,7.423a10.4,10.4,0,0,0-1.31,4.6c-.983.707-1.31,1.591-1.31,3.181,0,1.767-.328,2.651-1.147,3.181,1.31,3.888,1.8,6.009,3.276,9.9a38.933,38.933,0,0,1,1.965,10.428c0,.707-.164,1.237-.164,1.767,2.129,3.358,5.733,5.126,10.81,5.126.655,0,1.474-.177,2.293-.177a34.81,34.81,0,0,0,7.7-1.237c8.845-5.479,17.2-13.786,23.258-19.8l1.8-1.767C238.543,103.572,229.863,113.824,228.88,114.884Zm-48.81,60.8-12.939,8.13c-2.948,1.591-5.569,2.651-7.862,2.651-.819,1.06-2.129,1.414-3.767,1.414h-4.586a4.821,4.821,0,0,1-1.8-3.888c0-.884.983-3.535,2.948-8.13a24.652,24.652,0,0,1,11.957-8.484H166.8a2.063,2.063,0,0,0,2.293-1.414h8.681c3.112,0,4.914,1.414,5.569,4.242C183.346,172.326,182.2,174.093,180.07,175.684Z" transform="translate(0.25 0.252)" fill="#fff" stroke="#fff" stroke-width="0.5" opacity="0.541"/>
</svg>
