<svg xmlns="http://www.w3.org/2000/svg" width="166.705" height="153.274" viewBox="0 0 166.705 153.274">
  <g id="Group_649" data-name="Group 649" transform="translate(-263.647 -5265.8)">
    <g id="Group_648" data-name="Group 648">
      <g id="Path_887" data-name="Path 887" transform="translate(269.697 5269.707)" fill="#ef7487" opacity="0.929">
        <path d="M 94.79864501953125 148.8673706054688 C 89.44795989990234 148.8673706054688 83.22856903076172 148.2737426757812 76.31319427490234 147.1029205322266 C 64.56382751464844 145.1136779785156 55.14632797241211 142.7389221191406 47.52254104614258 139.8429718017578 C 40.57585525512695 137.2042083740234 35.14819717407227 134.1342315673828 30.92938232421875 130.4575805664062 C 22.9699878692627 123.5210266113281 20.1921443939209 115.1868133544922 16.97569847106934 105.5366058349609 C 13.83261871337891 96.10660552978516 10.27019786834717 85.41841888427734 1.066223859786987 73.65181732177734 C -3.120802402496338 68.29897308349609 -5.342012882232666 62.21902465820312 -5.53564453125 55.5809211730957 C -5.714144706726074 49.46197128295898 -4.183881282806396 43.03389358520508 -0.9873287677764893 36.4752082824707 C 1.568539619445801 31.2310791015625 5.092855453491211 26.10894775390625 9.487724304199219 21.2511043548584 C 13.79285526275635 16.49244689941406 18.72595977783203 12.21257877349854 24.14996147155762 8.530420303344727 C 35.48962020874023 0.8323415517807007 47.7834358215332 -3.407184839248657 58.76677703857422 -3.407184839248657 C 65.117431640625 -3.407184839248657 70.91233062744141 -2.004158496856689 75.99048614501953 0.7628942131996155 C 83.63082885742188 4.926078319549561 92.55512237548828 9.046446800231934 102.0034103393555 13.40873622894287 C 115.3950653076172 19.59170913696289 129.2426452636719 25.98515701293945 140.094482421875 32.87839508056641 C 145.9393005371094 36.59110641479492 150.3635406494141 40.08865737915039 153.6199645996094 43.57091903686523 C 155.3795928955078 45.45260620117188 156.8002166748047 47.34734344482422 157.8423767089844 49.2025260925293 C 158.9309387207031 51.14031600952148 159.6431732177734 53.10007858276367 159.9592742919922 55.02742004394531 C 160.4400634765625 57.95870971679688 160.0235595703125 60.94952392578125 158.7213745117188 63.91684341430664 C 157.3299560546875 67.0875244140625 154.8813018798828 70.34429168701172 151.4434356689453 73.59665679931641 C 138.7722473144531 85.5841064453125 134.9649810791016 100.6328430175781 131.6059112548828 113.9100494384766 C 130.3853759765625 118.7343978881836 129.2325439453125 123.2911834716797 127.7319869995117 127.4806594848633 C 126.0550155639648 132.1626892089844 124.1912231445312 135.6904754638672 121.8665390014648 138.5828094482422 C 119.1643295288086 141.9448699951172 115.8437728881836 144.3978118896484 111.7151718139648 146.0818634033203 C 107.119987487793 147.9562377929688 101.5865631103516 148.8673706054688 94.79864501953125 148.8673706054688 Z" stroke="none"/>
        <path d="M 58.76677703857422 -2.907211303710938 C 47.88255310058594 -2.907211303710938 35.68846893310547 1.301651000976562 24.43080139160156 8.944076538085938 C 19.03974914550781 12.6038818359375 14.13694763183594 16.85740661621094 9.8585205078125 21.5865478515625 C 5.495254516601562 26.40946197509766 1.997421264648438 31.492431640625 -0.537841796875 36.69424438476562 C -3.6986083984375 43.17951965332031 -5.21197509765625 49.52902221679688 -5.035858154296875 55.56632232666016 C -4.84539794921875 62.09552001953125 -2.659835815429688 68.07671356201172 1.4600830078125 73.34374237060547 C 10.71725463867188 85.17837524414062 14.29415893554688 95.91010284423828 17.45002746582031 105.3785171508789 C 20.64335632324219 114.9593200683594 23.40121459960938 123.2336273193359 31.25788879394531 130.0805969238281 C 35.43135833740234 133.7177734375 40.80963897705078 136.7581634521484 47.70008087158203 139.3755493164062 C 55.29305267333984 142.2597961425781 64.67977142333984 144.6261901855469 76.39663696289062 146.6099090576172 C 83.28452301025391 147.7760772705078 89.47586059570312 148.3673553466797 94.79866027832031 148.3673553466797 C 107.4625549316406 148.3673553466797 115.9397201538086 145.1587066650391 121.476806640625 138.2695770263672 C 123.7655792236328 135.4219055175781 125.6036376953125 131.9400939941406 127.2612457275391 127.3120422363281 C 128.7536926269531 123.1452102661133 129.9036560058594 118.5997695922852 131.1211700439453 113.7874374389648 C 134.4969482421875 100.4442138671875 138.3231353759766 85.32068634033203 151.0997772216797 73.23340606689453 C 154.4888610839844 70.02721405029297 156.8990783691406 66.82504272460938 158.2635192871094 63.71590423583984 C 159.5261840820312 60.83863067626953 159.9307250976562 57.942626953125 159.4658508300781 55.10835266113281 C 159.1592254638672 53.23876953125 158.4663238525391 51.33415985107422 157.4064483642578 49.44741058349609 C 156.3838806152344 47.62709808349609 154.9870452880859 45.76487731933594 153.2547454833984 43.91243743896484 C 150.0275573730469 40.46141052246094 145.6351013183594 36.99021148681641 139.826416015625 33.30043792724609 C 129.0027770996094 26.42513275146484 115.1706085205078 20.03879547119141 101.7938537597656 13.86271667480469 C 92.33779907226562 9.496826171875 83.40616607666016 5.373046875 75.75124359130859 1.201934814453125 C 70.74729919433594 -1.524703979492188 65.03291320800781 -2.907211303710938 58.76677703857422 -2.907211303710938 M 58.76678466796875 -3.907196044921875 C 64.93502807617188 -3.907196044921875 70.87026977539062 -2.596511840820312 76.22972106933594 0.323822021484375 C 113.7229919433594 20.75373840332031 185.7765197753906 41.80438232421875 151.7870178222656 73.95985412597656 C 117.7975311279297 106.115348815918 148.2973480224609 159.7973480224609 76.22972106933594 147.5958862304688 C 4.16204833984375 135.3944091796875 28.65374755859375 109.7320175170898 0.6724090576171875 73.95985412597656 C -23.30914306640625 43.30113983154297 21.78369140625 -3.907196044921875 58.76678466796875 -3.907196044921875 Z" stroke="none" fill="#f0d6da"/>
      </g>
      <text id="_1" data-name=" 1" transform="translate(335.523 5388.211)" fill="#fff" font-size="92" font-family="AcademyEngravedLetPlain, Academy Engraved LET Plain"><tspan x="-32.771" y="0" xml:space="preserve"> 1</tspan></text>
    </g>
    <text id="Point" transform="translate(332.647 5317.102) rotate(-22)" fill="#fff" font-size="34" font-family="AcademyEngravedLetPlain, Academy Engraved LET Plain"><tspan x="-37.876" y="0">Point</tspan></text>
  </g>
</svg>
