<svg xmlns="http://www.w3.org/2000/svg" width="221.271" height="221.467" viewBox="0 0 221.271 221.467">
  <g id="Group_651" data-name="Group 651" transform="translate(-222.645 -5890.127)">
    <g id="Path_889" data-name="Path 889" transform="translate(452.743 5990.197) rotate(133)" fill="#ef7487" opacity="0.929">
      <path d="M 92.43060302734375 156.9146575927734 C 89.61367797851562 156.9146575927734 86.46907806396484 156.2817687988281 83.08415222167969 155.0335083007812 C 79.50352478027344 153.7131195068359 75.51470184326172 151.6535186767578 71.22852325439453 148.9119415283203 C 57.03692626953125 139.8345184326172 46.09722518920898 132.0353088378906 37.78427505493164 125.0686874389648 C 29.1541748046875 117.8362655639648 22.8674488067627 111.1045608520508 18.56487464904785 104.488883972168 C 16.40622520446777 101.1697387695312 14.73714923858643 97.89160919189453 13.4622745513916 94.46718597412109 C 12.2167501449585 91.12158966064453 11.3818244934082 87.72708892822266 10.90982437133789 84.08973693847656 C 10.03450012207031 77.34423828125 10.43382453918457 69.88461303710938 12.16657447814941 60.61386108398438 C 13.81750011444092 51.78078842163086 16.35865020751953 44.36128616333008 19.93519973754883 37.93138885498047 C 21.7325496673584 34.70013809204102 23.82849884033203 31.68216323852539 26.16485023498535 28.96133804321289 C 28.51049995422363 26.22968673706055 31.18729972839355 23.69403648376465 34.12092590332031 21.42481231689453 C 40.03372573852539 16.8510627746582 47.10459899902344 13.19251251220703 55.73757553100586 10.24013710021973 C 64.21174621582031 7.342062473297119 74.04419708251953 5.17636251449585 85.79679870605469 3.619262456893921 C 87.49567413330078 3.39416241645813 89.26707458496094 3.280037403106689 91.06179809570312 3.280037403106689 C 95.09085083007812 3.280037403106689 99.377197265625 3.851362228393555 103.8018264770508 4.978087425231934 C 108.0037231445312 6.048112392425537 112.365348815918 7.627037525177002 116.7655029296875 9.670987129211426 C 125.0324249267578 13.51113700866699 133.4537048339844 19.01143646240234 141.1189727783203 25.5772876739502 C 148.5053558349609 31.90426254272461 154.9163208007812 38.9666633605957 159.6587982177734 46.00093841552734 C 164.5216217041016 53.21378707885742 167.3967437744141 60.07411193847656 167.9732971191406 65.84028625488281 C 168.4203948974609 70.31171417236328 167.4951934814453 74.05691528320312 165.2234039306641 76.97188568115234 C 162.7542572021484 80.14003753662109 158.6983795166016 82.31281280517578 153.1683959960938 83.42988586425781 C 132.7881317138672 87.54676055908203 124.9722213745117 107.8785095214844 118.0764007568359 125.8168640136719 C 114.9058532714844 134.0645599365234 111.9111251831055 141.8548431396484 107.9625244140625 147.6011657714844 C 105.8697280883789 150.6467437744141 103.6815032958984 152.8708343505859 101.2727966308594 154.4005432128906 C 98.60890197753906 156.09228515625 95.71659851074219 156.9146575927734 92.43060302734375 156.9146575927734 Z" stroke="none"/>
      <path d="M 91.06179809570312 3.780044555664062 C 89.28907775878906 3.780044555664062 87.53977203369141 3.892715454101562 85.86247253417969 4.114913940429688 C 74.14297485351562 5.667633056640625 64.34194946289062 7.825958251953125 55.89936828613281 10.71324157714844 C 47.31922912597656 13.64756774902344 40.29550170898438 17.28071594238281 34.42681884765625 21.82028198242188 C 28.57119750976562 26.34980773925781 23.973876953125 31.69927978515625 20.37214660644531 38.1744384765625 C 16.82221984863281 44.55645751953125 14.29891967773438 51.926513671875 12.65805053710938 60.70573425292969 C 10.93522644042969 69.92341613769531 10.53727722167969 77.33338928222656 11.40567016601562 84.025390625 C 11.87272644042969 87.6246337890625 12.69873046875 90.98311614990234 13.93084716796875 94.29273986816406 C 15.1927490234375 97.68228912353516 16.84564208984375 100.9283142089844 18.98402404785156 104.2162628173828 C 27.32432556152344 117.0403366088867 43.0294189453125 130.2813110351562 71.4979248046875 148.4907073974609 C 75.75387573242188 151.2129364013672 79.71022796630859 153.2564086914062 83.25712585449219 154.5643920898438 C 86.58650207519531 155.7921447753906 89.67292785644531 156.4146575927734 92.43060302734375 156.4146575927734 C 98.48142242431641 156.4146575927734 103.2858734130859 153.5241394042969 107.550422668457 147.3179931640625 C 111.4655990600586 141.6203155517578 114.4500274658203 133.8568115234375 117.6097030639648 125.6374664306641 C 124.5516967773438 107.5789642333984 132.4199523925781 87.11101531982422 153.0693969726562 82.93978881835938 C 158.4789276123047 81.84706115722656 162.4354248046875 79.73576354980469 164.8290252685547 76.66453552246094 C 167.0191802978516 73.85433959960938 167.90966796875 70.22926330566406 167.4757690429688 65.89003753662109 C 166.9074249267578 60.20584106445312 164.0609741210938 53.42495727539062 159.2442016601562 46.28045654296875 C 154.5265197753906 39.28288269042969 148.1464233398438 32.25515747070312 140.793701171875 25.95701599121094 C 133.1626281738281 19.42044067382812 124.7809753417969 13.94563293457031 116.5548782348633 10.12446594238281 C 112.1826782226562 8.093490600585938 107.8504257202148 6.525039672851562 103.6784210205078 5.462615966796875 C 99.29409790039062 4.34613037109375 95.04924774169922 3.780044555664062 91.06179809570312 3.780044555664062 M 91.06179809570312 2.780044555664062 C 136.8742370605469 2.780044555664062 197.3245239257812 75.02036285400391 153.2673950195312 83.91999053955078 C 107.4775085449219 93.16966247558594 126.2251892089844 184.6830596923828 70.9591064453125 149.3331298828125 C 15.69305419921875 113.9831161499023 5.150802612304688 95.42908477783203 11.67507934570312 60.52201080322266 C 18.19935607910156 25.61494445800781 39.50521850585938 9.248031616210938 85.73112487792969 3.123580932617188 C 87.48040008544922 2.891830444335938 89.25999450683594 2.780044555664062 91.06179809570312 2.780044555664062 Z" stroke="none" fill="#f0d6da"/>
    </g>
    <text id="_3" data-name="3" transform="translate(346.853 6047.477) rotate(1)" fill="#fff" font-size="92" font-family="AcademyEngravedLetPlain, Academy Engraved LET Plain"><tspan x="-21.81" y="0">3</tspan></text>
    <text id="Point" transform="translate(333.479 5973.43) rotate(-22)" fill="#fff" font-size="34" font-family="AcademyEngravedLetPlain, Academy Engraved LET Plain"><tspan x="-37.876" y="0">Point</tspan></text>
  </g>
</svg>
