<svg xmlns="http://www.w3.org/2000/svg" width="67.657" height="81.338" viewBox="0 0 67.657 81.338">
  <path id="Path_129" data-name="Path 129" d="M-4.747-31.59c0-2.2-.585-3.555-1.665-4.14a5.1,5.1,0,0,0-2.655,1.305,22.516,22.516,0,0,0-5.265,5.04c-1.485,1.98-2.97,3.96-4.41,5.985v.72a15.2,15.2,0,0,0-2.565,3.78,32.369,32.369,0,0,1-2.3,3.915,5.067,5.067,0,0,1-.45,1.44,4.558,4.558,0,0,0-.45,1.53,2.6,2.6,0,0,0-.81,1.215,3.315,3.315,0,0,1-.675,1.17c-.09.18-.63,1.8-1.71,4.815C-28.372-2.835-29-1.26-29.542-.045a3.472,3.472,0,0,0-.315,1.44,1.945,1.945,0,0,1-.675,1.35,8.923,8.923,0,0,1-.36,2.2l-.72,2.115a1.829,1.829,0,0,0-.225.945v.54a4.012,4.012,0,0,1,.09.495,1.564,1.564,0,0,1-.855,1.53,1.554,1.554,0,0,1,.135.585,3.739,3.739,0,0,1-.27,1.26,4,4,0,0,0-.27,1.215,3.474,3.474,0,0,0,.09.675,3.125,3.125,0,0,0-.675,1.575l-.27,1.755c0,.09-.09,1.08-.36,3.015a7.092,7.092,0,0,1-.135,1.035,6.824,6.824,0,0,0-.135,1.08,1.687,1.687,0,0,0,.045.5,1.343,1.343,0,0,0-.36,1.08v.225a1.731,1.731,0,0,1-.36,1.305V34.65a2.192,2.192,0,0,1,.27,1.125c0,.225-.045.54-.09.945a8.036,8.036,0,0,0-.045.945,2.357,2.357,0,0,0,.585,1.665.742.742,0,0,0,.675-.405.942.942,0,0,1,.45-.54,1.006,1.006,0,0,1-.4-.765,2.792,2.792,0,0,1,.225-.81,2.408,2.408,0,0,0,.18-.81l-.585.36c-.135-2.16-.18-4.275-.18-6.3a83.163,83.163,0,0,1,.765-11.2,6.955,6.955,0,0,1,.36-1.575,4.606,4.606,0,0,0,.315-1.53,5.513,5.513,0,0,0-.09-.855,4.665,4.665,0,0,0,.675-2.07l.225-2.25-.18-.18.18-.225c.54-1.44.855-2.2.945-2.385a13.263,13.263,0,0,1,1.125-4.86c.09-.4.495-1.485,1.125-3.285a16.878,16.878,0,0,0,.9-3.42.968.968,0,0,0,.405-.9l2.25-5.265c1.125-2.655,3.1-5.985,4.32-8.775a18.572,18.572,0,0,1,.9-1.665l.405-.585c2.07-3.105,3.42-5.175,4.14-6.165a39.552,39.552,0,0,1,5.535-6.12A5.642,5.642,0,0,1-6.952-34.65a1.827,1.827,0,0,1,.945.225c0,.45.045.9.045,1.35a26.7,26.7,0,0,1-1.215,8.19l-.405.36A7.684,7.684,0,0,1-8.887-21.24l-2.025,3.1c-1.98,1.125-3.465,1.935-4.5,2.385a3.884,3.884,0,0,1-1.755,1.44,4.138,4.138,0,0,0-1.755,1.395.271.271,0,0,0-.045.18c0,.225.225.54.585.945a23.263,23.263,0,0,0,4.86-2.835,10.849,10.849,0,0,0,1.44-1.26,3.031,3.031,0,0,1,1.53-.945c.135,0,.27.045.45.045.135,0,.405-.045.72-.045a4.45,4.45,0,0,1,.675-.045c.63,0,1.035.225,1.125.765l-1.08,2.835a6.74,6.74,0,0,0-1.26,1.62,3.231,3.231,0,0,1-1.53,1.35,7.816,7.816,0,0,1-1.935,2.16A10.315,10.315,0,0,0-15.412-6.03l-.765.18A50.034,50.034,0,0,1-27.562,3.51v.36a.638.638,0,0,0,.675.54h1.035a.793.793,0,0,0,.405-.675c0-.09-.045-.135-.045-.225a37.56,37.56,0,0,0,5.04-4.14q3.578-3.442,4.86-4.455c1.845-1.71,3.78-3.375,5.58-5.13a13.162,13.162,0,0,0,3.78-6.255,2.507,2.507,0,0,0-1.44-1.35c-.36-.09-.99-.18-1.89-.315a3.425,3.425,0,0,1,.495-.765c1.665-1.935,2.88-5.175,3.78-9.72a1.842,1.842,0,0,0,.135-.855v-.27c0-.585.135-.945.405-1.125Zm19.26-6.93a2.669,2.669,0,0,1,.225-.63,1.773,1.773,0,0,0,.225-.63.725.725,0,0,0-.45-.63c-.81.45-1.71,1.845-2.655,4.23-.99,2.385-1.71,3.78-2.25,4.23a9.26,9.26,0,0,1-1.485,2.88c-.63.9-1.26,1.8-1.935,2.7Q3.15-20.835,1.463-18.135A6.039,6.039,0,0,1,.2-15.615l-2.025,2.43c0,.045-.405.855-1.26,2.43A8.271,8.271,0,0,0-4.117-8.19c-.54.675-1.035,1.35-1.53,2.025a6.7,6.7,0,0,0-1.08,2.25A3.923,3.923,0,0,1-7.807-2.16,3.218,3.218,0,0,0-8.842-.5c0,.405.36.765,1.035,1.08a3.982,3.982,0,0,0,.855-2.16A48.7,48.7,0,0,0-3.487-7.56c1.71-3.33,2.79-5.355,3.24-6.12a7.587,7.587,0,0,0,1.71-2.25c.45-.81.855-1.62,1.26-2.43l6.03-9.99C11.407-32.715,13.343-36.135,14.513-38.52ZM12.758-10.485a4.128,4.128,0,0,0-1.53-1.35,9.249,9.249,0,0,0-6.165,3.15A37.946,37.946,0,0,0,.878-3.465c0,.495,0,.99-.045,1.485a3.658,3.658,0,0,0,.5,1.71A2.583,2.583,0,0,0,3.578.765a15.7,15.7,0,0,0,3.465-.81A39.5,39.5,0,0,0,10.6-3.33a19.5,19.5,0,0,0,3.015-5.4A3.936,3.936,0,0,0,12.758-10.485Zm-.405,2.16a3.543,3.543,0,0,1-.855,1.98,8.861,8.861,0,0,0-1.17,1.89,6.918,6.918,0,0,0-1.98,1.89A2.928,2.928,0,0,1,6.1-1.215a2.385,2.385,0,0,1-1.755.63L2.183-.72a4.476,4.476,0,0,1-.27-1.44,2.35,2.35,0,0,1,.18-.945,1.129,1.129,0,0,0,.045.45l.225.18a.905.905,0,0,0,.63-.9,1.138,1.138,0,0,1,.585-.945l-.5-.45-.225.225c0-.495.135-.72.4-.72l.315.225A.932.932,0,0,0,3.8-5.49l.225.225.495-.45L4.028-6.21,3.8-5.985A8.142,8.142,0,0,1,6.953-8.73,2.8,2.8,0,0,1,5.918-7.515c-.585.495-.9.9-.9,1.3a.766.766,0,0,0,.045.315,14.669,14.669,0,0,0,2.655-2.88c.945-1.17,1.8-1.8,2.655-1.8a3.027,3.027,0,0,1,1.395.4A3.99,3.99,0,0,1,12.353-8.325ZM24.548-5.58a21.162,21.162,0,0,1-5.265,2.925c1.4-5,3.825-7.515,7.29-7.515a5.165,5.165,0,0,1,2.07.45A14.042,14.042,0,0,1,24.548-5.58Zm5.76-1.3a.724.724,0,0,0-.81-.54,4.564,4.564,0,0,1-1.125,2.16L26.663-3.51c-.09,0-.99.495-2.745,1.485A6.151,6.151,0,0,1,20.948-.99a4.177,4.177,0,0,1-1.08-.135,7.635,7.635,0,0,0,1.8-.855,4.448,4.448,0,0,1,1.98-.675,49.93,49.93,0,0,1,3.6-3.465,9.666,9.666,0,0,0,2.88-3.78c-.225-.36-.45-.72-.72-1.08a.926.926,0,0,0-.855-.45c-4.905.45-8.46,3.24-10.575,8.1a.925.925,0,0,1-1.035.81,2.006,2.006,0,0,1-1.17-.36,2.826,2.826,0,0,0-.63.81,2.937,2.937,0,0,1,.675.495,1.407,1.407,0,0,0,.9.45h.405c.405.99,1.44,1.53,3.195,1.71C22.7-.4,24.052-.99,24.412-1.17a8.98,8.98,0,0,0,3.555-2.61.983.983,0,0,1,.225.63,1.789,1.789,0,0,1-.36.9,3.762,3.762,0,0,0-.54.855.6.6,0,0,1,.135.36.931.931,0,0,1-.405.63c-.27.225-.45.45-.45.63a.65.65,0,0,0,.09.315,2.877,2.877,0,0,0-1.17,1.44c-.124.373-3.9,6.733-4.005,6.84-1.007,1.045-4.21,9.794-7.743,13.462s-3.551,4.133-6.57,4.649-4.07-.007-5.847-2.361S-1.785,19.632.065,17.514s1.148-1.949,8.821-3.537S30.757,11.16,30.757,11.16v-.585c-.349-.412-16.358,1.882-23.04,3.06s-5.212.887-7.965,2.615S.065,24,.065,24,2.6,28,6.312,27.662s4.343-1.007,8.078-5.133,4.284-6.773,6.861-11.369,3.567-5.85,3.972-6.885a5.239,5.239,0,0,1,1.215-2.16,14.009,14.009,0,0,1,2.115-4.05,19.231,19.231,0,0,0,2.2-4C30.622-5.985,30.442-6.3,30.307-6.885Z" transform="translate(35.917 41.258)" fill="#e2c9a1" stroke="#e2c9a1" stroke-width="1.5"/>
</svg>
