<svg xmlns="http://www.w3.org/2000/svg" width="221.07" height="221.656" viewBox="0 0 221.07 221.656">
  <g id="Group_652" data-name="Group 652" transform="translate(-236.465 -5561.044)">
    <g id="Path_888" data-name="Path 888" transform="translate(452.743 5667.01) rotate(133)" fill="#ef7487" opacity="0.929">
      <path d="M 95.01142883300781 148.8633117675781 C 89.50360870361328 148.8633117675781 83.21260833740234 148.2710113525391 76.31318664550781 147.1029052734375 C 64.56381988525391 145.1136779785156 55.14632034301758 142.7389373779297 47.52252960205078 139.8429565429688 C 40.57587432861328 137.2042236328125 35.14821624755859 134.1342315673828 30.92937278747559 130.4575653076172 C 22.96997833251953 123.5210418701172 20.19216156005859 115.1868286132812 16.97568893432617 105.53662109375 C 13.83260917663574 96.10659027099609 10.270188331604 85.41841125488281 1.066214561462402 73.65180206298828 C -1.798259139060974 69.98977661132812 -3.687153816223145 66.28680419921875 -4.548022270202637 62.64577865600586 C -5.352969646453857 59.24125289916992 -5.280838012695312 55.79372406005859 -4.333627700805664 52.39901351928711 C -3.552206516265869 49.59848785400391 -2.155074834823608 46.75896072387695 -0.1810222417116165 43.95925140380859 C 1.672504067420959 41.33051681518555 4.084398746490479 38.66627883911133 6.987688064575195 36.0405158996582 C 12.14468860626221 31.37646293640137 19.06455612182617 26.64527893066406 27.55510902404785 21.97830390930176 C 43.08781814575195 13.44051551818848 60.62497711181641 6.783541202545166 73.4300537109375 1.922857165336609 C 74.46037292480469 1.531751990318298 75.45437622070312 1.154436111450195 76.40779113769531 0.7910414338111877 C 79.22163391113281 -0.2814322710037231 82.46205902099609 -0.8252217173576355 86.03900146484375 -0.8252217173576355 C 96.84921264648438 -0.8252217173576355 110.5099792480469 4.141225814819336 123.5185012817383 12.80067253112793 C 136.5770568847656 21.49341011047363 147.1310272216797 32.69546127319336 152.4742889404297 43.53451538085938 C 155.1695251464844 49.00191116333008 156.5071868896484 54.26633071899414 156.4501342773438 59.18159484863281 C 156.3884735107422 64.49322509765625 154.6861572265625 69.36290740966797 151.3904571533203 73.65535736083984 C 143.5257720947266 83.89864349365234 140.33984375 96.20948791503906 137.2588500976562 108.114990234375 C 134.4671936035156 118.9024124145508 131.830322265625 129.0915985107422 125.9221878051758 136.5904693603516 C 122.7782440185547 140.5809326171875 118.9581069946289 143.5001220703125 114.2435302734375 145.5148315429688 C 111.6948699951172 146.6039886474609 108.8350296020508 147.4367065429688 105.7434005737305 147.9898376464844 C 102.5040588378906 148.5694122314453 98.89329528808594 148.8633117675781 95.01142883300781 148.8633117675781 Z" stroke="none"/>
      <path d="M 86.03900146484375 -0.325225830078125 C 82.52308654785156 -0.325225830078125 79.34260559082031 0.2075347900390625 76.58586883544922 1.258255004882812 C 75.63224029541016 1.621719360351562 74.63803100585938 1.999114990234375 73.60750579833984 2.390304565429688 C 60.81623840332031 7.245773315429688 43.29798126220703 13.89553833007812 27.79595184326172 22.41648864746094 C 19.33937072753906 27.06475067138672 12.45132446289062 31.77330780029297 7.323089599609375 36.41133117675781 C 4.447128295898438 39.01235961914062 2.059906005859375 41.64878082275391 0.2276153564453125 44.24738311767578 C -1.713409423828125 47.00025177001953 -3.08599853515625 49.78807067871094 -3.852020263671875 52.53338623046875 C -4.776260375976562 55.84577941894531 -4.846710205078125 59.20938110351562 -4.061447143554688 62.53072357177734 C -3.217315673828125 66.10099029541016 -1.359603881835938 69.739013671875 1.460052490234375 73.34375 C 10.71720886230469 85.17838287353516 14.29415893554688 95.91009521484375 17.45002746582031 105.3785095214844 C 20.64337158203125 114.9593353271484 23.40123748779297 123.2336196899414 31.25787353515625 130.0806274414062 C 35.43134307861328 133.7177581787109 40.80963897705078 136.7581481933594 47.70008087158203 139.3755493164062 C 55.29306030273438 142.2598114013672 64.67979431152344 144.6261749267578 76.39663696289062 146.6099090576172 C 83.26866149902344 147.7733764648438 89.53155517578125 148.3633117675781 95.01142883300781 148.3633117675781 C 98.86384582519531 148.3633117675781 102.4449768066406 148.0720672607422 105.6553497314453 147.4976806640625 C 108.7097625732422 146.951171875 111.5331344604492 146.1293640136719 114.0470275878906 145.0550689697266 C 118.6826858520508 143.0740661621094 122.4386138916016 140.2040710449219 125.529426574707 136.2810363769531 C 131.3725891113281 128.8646545410156 133.9966583251953 118.724853515625 136.7747955322266 107.9897003173828 C 139.8683471679688 96.03578186035156 143.0672149658203 83.67485809326172 150.9938507080078 73.35086059570312 C 154.2222442626953 69.14606475830078 155.8898010253906 64.37688446044922 155.9501647949219 59.17578125 C 156.0062866210938 54.33988189697266 154.6859436035156 49.15177917480469 152.0258178710938 43.75559234619141 C 146.7203216552734 32.99317169189453 136.2288208007812 21.86225128173828 123.2414245605469 13.21688842773438 C 117.0426635742188 9.09051513671875 110.4511566162109 5.681625366210938 104.1794738769531 3.35870361328125 C 97.57966613769531 0.9142303466796875 91.476318359375 -0.325225830078125 86.03900146484375 -0.325225830078125 M 86.03900146484375 -1.325225830078125 C 119.4142150878906 -1.325225830078125 173.9972229003906 45.03238677978516 151.7870330810547 73.95985412597656 C 129.6473236083984 102.795524597168 144.5648498535156 149.3632965087891 95.01143646240234 149.3632965087891 C 89.57039642333984 149.3632965087891 83.35994720458984 148.8030700683594 76.22971343994141 147.5958862304688 C 4.162063598632812 135.3944091796875 28.65373992919922 109.7320098876953 0.672393798828125 73.95985412597656 C -27.30894470214844 38.18772888183594 45.52016448974609 12.02853393554688 76.22971343994141 0.3238372802734375 C 79.17996215820312 -0.800628662109375 82.49189758300781 -1.325225830078125 86.03900146484375 -1.325225830078125 Z" stroke="none" fill="#f0d6da"/>
    </g>
    <text id="_2" data-name="2" transform="translate(347 5723.883)" fill="#fff" font-size="92" font-family="AcademyEngravedLetPlain, Academy Engraved LET Plain"><tspan x="-20.911" y="0">2</tspan></text>
    <text id="Point" transform="translate(333.479 5650.242) rotate(-22)" fill="#fff" font-size="34" font-family="AcademyEngravedLetPlain, Academy Engraved LET Plain"><tspan x="-37.876" y="0">Point</tspan></text>
  </g>
</svg>
