<svg xmlns="http://www.w3.org/2000/svg" xmlns:xlink="http://www.w3.org/1999/xlink" width="30.63" height="30.63" viewBox="0 0 30.63 30.63">
  <defs>
    <clipPath id="clip-path">
      <rect id="Rectangle_17" data-name="Rectangle 17" width="26.125" height="26.125" fill="none"/>
    </clipPath>
  </defs>
  <g id="アートワーク_1" data-name="アートワーク 1" transform="translate(4.985 -7.967) rotate(11)">
    <g id="Group_22" data-name="Group 22" transform="translate(1.52 7.82)" clip-path="url(#clip-path)">
      <path id="Path_4" data-name="Path 4" d="M12.328,21.279a35.4,35.4,0,0,0,6.953,4,8.8,8.8,0,0,0,2.528.843h.053c1.738,0,3.95-3.213,4.214-4.266a3.266,3.266,0,0,0-1.159-3.371L22.6,16.7a3.213,3.213,0,0,0-2-.685,3.266,3.266,0,0,0-2.212.843,10.851,10.851,0,0,0-1.106,1.106h-.105c-.948,0-4.319-2.95-5.215-3.9S8.061,9.744,8.114,8.8c0-.053,0-.105.053-.105A10.324,10.324,0,0,0,9.273,7.585a3.266,3.266,0,0,0,.158-4.161L7.587,1.264,7.06.737,6.744.474A3.213,3.213,0,0,0,5.428,0H5.006L4.269.105C3.321.316-.1,2.528,0,4.372A8.8,8.8,0,0,0,.845,6.847a35.4,35.4,0,0,0,4,6.953,35.132,35.132,0,0,0,7.479,7.479" transform="translate(-0.002 0)" fill="#c4c4c4"/>
    </g>
  </g>
</svg>
