<svg xmlns="http://www.w3.org/2000/svg" xmlns:xlink="http://www.w3.org/1999/xlink" width="122.89" height="47.77" viewBox="0 0 122.89 47.77">
  <defs>
    <clipPath id="clip-path">
      <rect id="Rectangle_161" data-name="Rectangle 161" width="122.89" height="47.769" fill="none"/>
    </clipPath>
  </defs>
  <g id="アートワーク_7" data-name="アートワーク 7" transform="translate(61.445 23.885)">
    <g id="Group_265" data-name="Group 265" transform="translate(-61.445 -23.885)" clip-path="url(#clip-path)">
      <path id="Path_150" data-name="Path 150" d="M10.055,23.432H9.477A1.541,1.541,0,0,1,8.514,21.7,18.684,18.684,0,0,1,25.849,8.6h0a1.541,1.541,0,0,1,0,2.889A15.987,15.987,0,0,0,11.4,22.468a1.541,1.541,0,0,1-1.348.963" transform="translate(7.859 7.965)" fill="#312926"/>
      <path id="Path_151" data-name="Path 151" d="M13.616,22.476h-.963a1.541,1.541,0,0,1-.193-2.119c5.779-7.7,15.987-9.631,25.811-10.979a1.541,1.541,0,1,1,.385,2.889c-9.246,1.156-18.877,2.889-23.885,9.824a1.541,1.541,0,0,1-1.156.578" transform="translate(11.231 8.535)" fill="#312926"/>
      <path id="Path_152" data-name="Path 152" d="M25.7,17.93a1.379,1.379,0,0,1-.578-2.7,65.875,65.875,0,0,1,27.93-5.008A1.348,1.348,0,0,1,54.4,11.766a1.348,1.348,0,0,1-1.541,1.348A63.371,63.371,0,0,0,26.087,17.93h-.578" transform="translate(22.26 9.422)" fill="#312926"/>
      <path id="Path_153" data-name="Path 153" d="M43.293,15.085a1.457,1.457,0,0,1-.385-2.889A26.581,26.581,0,0,1,53.31,12a1.541,1.541,0,0,1-.578,2.889,23.692,23.692,0,0,0-9.246.193H43.1" transform="translate(38.569 10.726)" fill="#312926"/>
      <path id="Path_154" data-name="Path 154" d="M58.244,17.922h-.77a9.246,9.246,0,0,0-5.779-.963,1.541,1.541,0,0,1-.385-2.889,12.135,12.135,0,0,1,7.7,1.348,1.4,1.4,0,1,1-.77,2.7" transform="translate(46.733 12.897)" fill="#312926"/>
    </g>
  </g>
</svg>
